<svg xmlns="http://www.w3.org/2000/svg" xmlns:xlink="http://www.w3.org/1999/xlink" viewBox="0,0,300,150" width="500px" height="500px" fill-rule="nonzero"><g fill="none" fill-rule="nonzero" stroke="none" stroke-width="1" stroke-linecap="butt" stroke-linejoin="miter" stroke-miterlimit="10" stroke-dasharray="" stroke-dashoffset="0" font-family="none" font-weight="none" font-size="none" text-anchor="none" style="mix-blend-mode: normal"><g transform="scale(2.56,2.56)"><path d="M87.215,56.71c1.135,-2.155 1.785,-4.605 1.785,-7.21c0,-6.621 -4.159,-12.257 -10.001,-14.478c0,-0.007 0.001,-0.014 0.001,-0.022c0,-11.598 -9.402,-21 -21,-21c-9.784,0 -17.981,6.701 -20.313,15.757c-1.476,-0.485 -3.049,-0.757 -4.687,-0.757c-7.692,0 -14.023,5.793 -14.89,13.252c-5.204,1.101 -9.11,5.717 -9.11,11.248c0,6.351 5.149,11.5 11.5,11.5c0.177,0 0.352,-0.012 0.526,-0.022c-0.004,0.175 -0.026,0.346 -0.026,0.522c0,11.322 9.178,20.5 20.5,20.5c6.437,0 12.175,-2.972 15.934,-7.614c2.178,2.225 5.206,3.614 8.566,3.614c4.65,0 8.674,-2.65 10.666,-6.518c1.052,0.335 2.171,0.518 3.334,0.518c6.075,0 11,-4.925 11,-11c0,-3.311 -1.47,-6.273 -3.785,-8.29z" fill="#f24139"></path><path d="M78.5,60.5v0.5h3v-0.5c0,0 4.242,0 5.5,0c2.485,0 4.5,-2.015 4.5,-4.5c0,-2.333 -1.782,-4.229 -4.055,-4.455c0.022,-0.181 0.055,-0.358 0.055,-0.545c0,-2.485 -2.015,-4.5 -4.5,-4.5c-1.438,0 -2.703,0.686 -3.527,1.736c-0.14,-2.636 -2.302,-4.736 -4.973,-4.736c-2.761,0 -5,2.239 -5,5c0,0.446 0.077,0.87 0.187,1.282c-0.642,-0.777 -1.601,-1.282 -2.687,-1.282c-1.781,0 -3.234,1.335 -3.455,3.055c-0.181,-0.022 -0.358,-0.055 -0.545,-0.055c-2.485,0 -4.5,2.015 -4.5,4.5c0,2.485 2.015,4.5 4.5,4.5c2.485,0 9.5,0 9.5,0z" fill="#fdfcef"></path><path d="M74.5,43c-3.033,0 -5.5,2.467 -5.5,5.5c0,0.016 0,0.031 0,0.047c-0.602,-0.355 -1.29,-0.547 -2,-0.547c-1.831,0 -3.411,1.261 -3.858,3.005c-0.047,-0.003 -0.094,-0.005 -0.142,-0.005c-2.757,0 -5,2.243 -5,5c0,2.757 2.243,5 5,5h15.5c0.276,0 0.5,-0.224 0.5,-0.5c0,-0.276 -0.224,-0.5 -0.5,-0.5h-15.5c-2.206,0 -4,-1.794 -4,-4c0,-2.206 1.794,-4 4,-4c0.117,0 0.23,0.017 0.343,0.032l0.141,0.019c0.021,0.003 0.041,0.004 0.062,0.004c0.246,0 0.462,-0.185 0.495,-0.437c0.191,-1.493 1.463,-2.618 2.959,-2.618c0.885,0 1.723,0.401 2.301,1.1c0.098,0.118 0.241,0.182 0.386,0.182c0.078,0 0.156,-0.018 0.228,-0.056c0.209,-0.107 0.314,-0.346 0.254,-0.573c-0.115,-0.435 -0.169,-0.801 -0.169,-1.153c0,-2.481 2.019,-4.5 4.5,-4.5c2.381,0 4.347,1.872 4.474,4.263c0.011,0.208 0.15,0.387 0.349,0.45c0.05,0.016 0.101,0.024 0.152,0.024c0.15,0 0.296,-0.069 0.392,-0.192c0.771,-0.982 1.912,-1.545 3.133,-1.545c2.206,0 4,1.794 4,4c0,0.117 -0.017,0.23 -0.032,0.343l-0.019,0.141c-0.016,0.134 0.022,0.268 0.106,0.373c0.084,0.105 0.207,0.172 0.34,0.185c2.056,0.205 3.605,1.907 3.605,3.958c0,2.206 -1.794,4 -4,4h-5.5c-0.276,0 -0.5,0.224 -0.5,0.5c0,0.276 0.224,0.5 0.5,0.5h5.5c2.757,0 5,-2.243 5,-5c0,-2.397 -1.689,-4.413 -4.003,-4.877c0.002,-0.041 0.003,-0.082 0.003,-0.123c0,-2.757 -2.243,-5 -5,-5c-1.176,0 -2.293,0.416 -3.183,1.164c-0.598,-2.404 -2.762,-4.164 -5.317,-4.164z" fill="#472b29"></path><path d="M73,50c-1.403,0 -2.609,0.999 -2.913,2.341c-0.367,-0.222 -0.786,-0.341 -1.212,-0.341c-1.202,0 -2.198,0.897 -2.353,2.068c-0.203,-0.046 -0.396,-0.068 -0.584,-0.068c-1.529,0 -2.811,1.2 -2.918,2.732c-0.01,0.138 0.094,0.258 0.231,0.268c0.006,0 0.012,0 0.018,0c0.13,0 0.24,-0.101 0.249,-0.232c0.089,-1.271 1.151,-2.268 2.419,-2.268c0.229,0 0.47,0.042 0.738,0.127c0.022,0.007 0.045,0.01 0.067,0.01c0.055,0 0.11,-0.02 0.156,-0.054c0.064,-0.046 0.102,-0.128 0.102,-0.208c0,-1.034 0.841,-1.875 1.875,-1.875c0.447,0 0.885,0.168 1.231,0.473c0.047,0.041 0.106,0.063 0.165,0.063c0.032,0 0.063,-0.006 0.093,-0.019c0.088,-0.035 0.148,-0.117 0.155,-0.212c0.104,-1.293 1.193,-2.305 2.481,-2.305c0.208,0 0.425,0.034 0.682,0.107c0.023,0.007 0.047,0.01 0.07,0.01c0.109,0 0.207,-0.073 0.239,-0.182c0.038,-0.133 -0.039,-0.271 -0.172,-0.309c-0.302,-0.086 -0.563,-0.126 -0.819,-0.126z" fill="#472b29"></path><path d="M86.883,51.5c-1.326,0 -2.508,0.897 -2.874,2.182c-0.038,0.133 0.039,0.271 0.172,0.309c0.024,0.006 0.047,0.009 0.069,0.009c0.109,0 0.209,-0.072 0.24,-0.182c0.305,-1.07 1.289,-1.818 2.393,-1.818c0.117,0 0.23,0.014 0.342,0.029c0.012,0.002 0.023,0.003 0.035,0.003c0.121,0 0.229,-0.092 0.246,-0.217c0.019,-0.137 -0.077,-0.263 -0.214,-0.281c-0.134,-0.018 -0.27,-0.034 -0.409,-0.034z" fill="#472b29"></path><path d="M15.5,51h-10c-0.276,0 -0.5,-0.224 -0.5,-0.5c0,-0.276 0.224,-0.5 0.5,-0.5h10c0.276,0 0.5,0.224 0.5,0.5c0,0.276 -0.223,0.5 -0.5,0.5z" fill="#ffffff"></path><path d="M18.5,51h-1c-0.276,0 -0.5,-0.224 -0.5,-0.5c0,-0.276 0.224,-0.5 0.5,-0.5h1c0.276,0 0.5,0.224 0.5,0.5c0,0.276 -0.223,0.5 -0.5,0.5z" fill="#ffffff"></path><path d="M23.491,53h-8.991c-0.276,0 -0.5,-0.224 -0.5,-0.5c0,-0.276 0.224,-0.5 0.5,-0.5h8.991c0.276,0 0.5,0.224 0.5,0.5c0,0.276 -0.224,0.5 -0.5,0.5z" fill="#ffffff"></path><path d="M12.5,53h-1c-0.276,0 -0.5,-0.224 -0.5,-0.5c0,-0.276 0.224,-0.5 0.5,-0.5h1c0.276,0 0.5,0.224 0.5,0.5c0,0.276 -0.223,0.5 -0.5,0.5z" fill="#ffffff"></path><path d="M9.5,53h-2c-0.276,0 -0.5,-0.224 -0.5,-0.5c0,-0.276 0.224,-0.5 0.5,-0.5h2c0.276,0 0.5,0.224 0.5,0.5c0,0.276 -0.223,0.5 -0.5,0.5z" fill="#ffffff"></path><path d="M15.5,55h-2c-0.276,0 -0.5,-0.224 -0.5,-0.5c0,-0.276 0.224,-0.5 0.5,-0.5h2c0.276,0 0.5,0.224 0.5,0.5c0,0.276 -0.224,0.5 -0.5,0.5z" fill="#ffffff"></path><path d="M18.5,46c-0.177,0 -0.823,0 -1,0c-0.276,0 -0.5,0.224 -0.5,0.5c0,0.276 0.224,0.5 0.5,0.5c0.177,0 0.823,0 1,0c0.276,0 0.5,-0.224 0.5,-0.5c0,-0.276 -0.224,-0.5 -0.5,-0.5z" fill="#ffffff"></path><path d="M18.5,48c-0.177,0 -4.823,0 -5,0c-0.276,0 -0.5,0.224 -0.5,0.5c0,0.276 0.224,0.5 0.5,0.5c0.177,0 4.823,0 5,0c0.276,0 0.5,-0.224 0.5,-0.5c0,-0.276 -0.224,-0.5 -0.5,-0.5z" fill="#ffffff"></path><path d="M23.5,50c-0.177,0 -2.823,0 -3,0c-0.276,0 -0.5,0.224 -0.5,0.5c0,0.276 0.224,0.5 0.5,0.5c0.177,0 2.823,0 3,0c0.276,0 0.5,-0.224 0.5,-0.5c0,-0.276 -0.224,-0.5 -0.5,-0.5z" fill="#ffffff"></path><g fill="#ffffff"><path d="M72.5,24h-10c-0.276,0 -0.5,-0.224 -0.5,-0.5c0,-0.276 0.224,-0.5 0.5,-0.5h10c0.276,0 0.5,0.224 0.5,0.5c0,0.276 -0.224,0.5 -0.5,0.5z"></path><path d="M76.5,24h-2c-0.276,0 -0.5,-0.224 -0.5,-0.5c0,-0.276 0.224,-0.5 0.5,-0.5h2c0.276,0 0.5,0.224 0.5,0.5c0,0.276 -0.224,0.5 -0.5,0.5z"></path><path d="M81.5,26h-10c-0.276,0 -0.5,-0.224 -0.5,-0.5c0,-0.276 0.224,-0.5 0.5,-0.5h10c0.276,0 0.5,0.224 0.5,0.5c0,0.276 -0.223,0.5 -0.5,0.5z"></path><path d="M69.5,26h-1c-0.276,0 -0.5,-0.224 -0.5,-0.5c0,-0.276 0.224,-0.5 0.5,-0.5h1c0.276,0 0.5,0.224 0.5,0.5c0,0.276 -0.224,0.5 -0.5,0.5z"></path><path d="M66.47,26h-1.97c-0.276,0 -0.5,-0.224 -0.5,-0.5c0,-0.276 0.224,-0.5 0.5,-0.5h1.97c0.276,0 0.5,0.224 0.5,0.5c0,0.276 -0.224,0.5 -0.5,0.5z"></path><path d="M75.5,22h-5c-0.276,0 -0.5,-0.224 -0.5,-0.5c0,-0.276 0.224,-0.5 0.5,-0.5h5c0.276,0 0.5,0.224 0.5,0.5c0,0.276 -0.223,0.5 -0.5,0.5z"></path><path d="M72.5,28h-2c-0.276,0 -0.5,-0.224 -0.5,-0.5c0,-0.276 0.224,-0.5 0.5,-0.5h2c0.276,0 0.5,0.224 0.5,0.5c0,0.276 -0.224,0.5 -0.5,0.5z"></path></g><circle cx="52" cy="50" r="23" fill="#ee3e54"></circle><path d="M51.999,27.4c12.462,0 22.601,10.138 22.601,22.599c0,12.462 -10.139,22.601 -22.601,22.601c-12.461,0 -22.599,-10.138 -22.599,-22.6c0,-12.462 10.138,-22.6 22.599,-22.6M51.999,26c-13.234,0 -23.999,10.766 -23.999,24c0,13.234 10.765,24 23.999,24c13.234,0 24.001,-10.767 24.001,-24.001c0,-13.234 -10.766,-23.999 -24.001,-23.999z" fill="#472b29"></path><path d="M52.51,35.529c-9.927,0 -15.198,6.664 -15.198,13.919c0,3.374 1.796,7.573 4.669,8.911c0.435,0.203 0.669,0.115 0.769,-0.307c0.077,-0.32 0.464,-1.882 0.639,-2.609c0.056,-0.232 0.028,-0.431 -0.159,-0.659c-0.951,-1.154 -1.712,-3.273 -1.712,-5.249c0,-5.073 3.841,-9.982 10.384,-9.982c5.65,0 9.606,3.851 9.606,9.357c0,6.221 -3.142,10.532 -7.23,10.532c-2.258,0 -3.948,-1.867 -3.406,-4.158c0.65,-2.733 1.905,-5.683 1.905,-7.657c0,-1.766 -0.947,-3.239 -2.909,-3.239c-2.308,0 -4.161,2.387 -4.161,5.585c0,2.036 0.688,3.414 0.688,3.414c0,0 -2.28,9.639 -2.697,11.433c-0.462,1.981 -0.282,4.763 -0.082,6.582v0c0.519,0.203 1.038,0.407 1.574,0.573v0c0.939,-1.527 2.34,-4.032 2.859,-6.029c0.28,-1.077 1.434,-5.468 1.434,-5.468c0.749,1.43 2.94,2.641 5.271,2.641c6.936,0 11.935,-6.379 11.935,-14.306c0.001,-7.6 -6.199,-13.284 -14.179,-13.284z" fill="#fdfcef"></path><path d="M45.191,72.474c-0.049,0 -0.099,-0.007 -0.148,-0.022c-0.548,-0.169 -1.079,-0.377 -1.609,-0.585c-0.173,-0.068 -0.294,-0.226 -0.314,-0.411c-0.217,-1.97 -0.377,-4.741 0.092,-6.75c0.385,-1.655 2.355,-9.987 2.658,-11.269c-0.191,-0.449 -0.662,-1.73 -0.662,-3.464c0,-3.413 2.047,-6.085 4.661,-6.085c2.071,0 3.409,1.468 3.409,3.739c0,1.338 -0.522,3.029 -1.076,4.82c-0.301,0.975 -0.612,1.984 -0.843,2.953c-0.212,0.897 -0.038,1.76 0.492,2.43c0.559,0.707 1.444,1.112 2.428,1.112c3.899,0 6.73,-4.219 6.73,-10.032c0,-5.215 -3.745,-8.857 -9.106,-8.857c-6.42,0 -9.885,4.885 -9.885,9.482c0,1.763 0.657,3.791 1.598,4.932c0.272,0.331 0.357,0.688 0.26,1.094c-0.108,0.449 -0.297,1.216 -0.444,1.814l-0.195,0.795c-0.083,0.349 -0.253,0.589 -0.506,0.711c-0.398,0.192 -0.821,-0.004 -0.96,-0.068c-3.104,-1.444 -4.958,-5.895 -4.958,-9.364c0,-6.945 4.912,-14.419 15.697,-14.419c8.369,0 14.68,5.926 14.68,13.785c0,8.44 -5.346,14.806 -12.435,14.806c-1.965,0 -3.914,-0.801 -5.053,-2c-0.358,1.364 -0.973,3.706 -1.167,4.453c-0.557,2.144 -2.067,4.782 -2.917,6.165c-0.094,0.147 -0.257,0.235 -0.427,0.235zM44.082,71.046c0.293,0.115 0.588,0.227 0.888,0.33c0.84,-1.395 2.114,-3.697 2.597,-5.556c0.28,-1.077 1.435,-5.469 1.435,-5.469c0.052,-0.2 0.222,-0.347 0.427,-0.37c0.201,-0.025 0.403,0.082 0.499,0.265c0.611,1.167 2.584,2.373 4.828,2.373c6.519,0 11.435,-5.935 11.435,-13.806c0,-7.289 -5.881,-12.785 -13.68,-12.785c-10.098,0 -14.697,6.956 -14.697,13.419c0,3.087 1.674,7.198 4.38,8.458c0.027,0.013 0.051,0.022 0.071,0.03c0,-0.001 0,-0.001 0,-0.001l0.196,-0.8c0.147,-0.596 0.335,-1.361 0.442,-1.808c0.021,-0.084 0.025,-0.123 -0.059,-0.225c-1.075,-1.304 -1.826,-3.593 -1.826,-5.567c0,-5.082 3.815,-10.482 10.885,-10.482c5.95,0 10.106,4.054 10.106,9.857c0,6.393 -3.251,11.032 -7.73,11.032c-1.292,0 -2.462,-0.544 -3.212,-1.492c-0.723,-0.914 -0.964,-2.079 -0.68,-3.281c0.238,-1.002 0.555,-2.026 0.861,-3.017c0.53,-1.717 1.031,-3.338 1.031,-4.525c0,-0.643 -0.174,-2.739 -2.409,-2.739c-2.053,0 -3.661,2.234 -3.661,5.085c0,1.88 0.629,3.178 0.636,3.191c0.052,0.104 0.065,0.224 0.039,0.337c0,0 -2.28,9.637 -2.697,11.431c-0.416,1.776 -0.296,4.25 -0.105,6.115z" fill="#472b29"></path><path d="M52,70c-0.474,0 -0.944,-0.017 -1.41,-0.049c-0.276,-0.02 -0.483,-0.258 -0.464,-0.534c0.02,-0.275 0.257,-0.481 0.534,-0.464c1.899,0.134 3.863,-0.021 5.726,-0.462c0.267,-0.062 0.538,0.103 0.602,0.372c0.063,0.269 -0.103,0.538 -0.372,0.602c-1.504,0.355 -3.057,0.535 -4.616,0.535z" fill="#472b29"></path><path d="M59.625,68.453c-0.194,0 -0.379,-0.114 -0.46,-0.304c-0.108,-0.254 0.01,-0.548 0.264,-0.656c7.029,-2.99 11.571,-9.856 11.571,-17.493c0,-1.105 -0.095,-2.211 -0.284,-3.289c-0.047,-0.272 0.135,-0.531 0.407,-0.579c0.273,-0.046 0.531,0.135 0.579,0.407c0.197,1.134 0.298,2.299 0.298,3.461c0,8.039 -4.781,15.267 -12.179,18.413c-0.064,0.027 -0.131,0.04 -0.196,0.04z" fill="#472b29"></path><path d="M40.5,66.25c-0.103,0 -0.206,-0.031 -0.295,-0.096c-5.138,-3.758 -8.205,-9.797 -8.205,-16.154c0,-11.028 8.972,-20 20,-20c8.82,0 16.713,5.905 19.193,14.359c0.078,0.265 -0.074,0.542 -0.339,0.621c-0.265,0.078 -0.542,-0.074 -0.621,-0.339c-2.356,-8.032 -9.854,-13.641 -18.233,-13.641c-10.477,0 -19,8.523 -19,19c0,6.039 2.914,11.776 7.795,15.346c0.223,0.163 0.271,0.476 0.108,0.699c-0.097,0.134 -0.249,0.205 -0.403,0.205z" fill="#472b29"></path><g><path d="M31.5,73.5c0,0 1.567,0 3.5,0c1.933,0 3.5,-1.567 3.5,-3.5c0,-1.781 -1.335,-3.234 -3.055,-3.455c0.028,-0.179 0.055,-0.358 0.055,-0.545c0,-1.933 -1.567,-3.5 -3.5,-3.5c-1.032,0 -1.95,0.455 -2.59,1.165c-0.384,-1.808 -1.987,-3.165 -3.91,-3.165c-2.209,0 -4,1.791 -4,4c0,0.191 0.03,0.374 0.056,0.558c-0.428,-0.344 -0.964,-0.558 -1.556,-0.558c-1.228,0 -2.245,0.887 -2.455,2.055c-0.179,-0.028 -0.358,-0.055 -0.545,-0.055c-1.933,0 -3.5,1.567 -3.5,3.5c0,1.933 1.567,3.5 3.5,3.5c1.933,0 7.5,0 7.5,0v0.5h7z" fill="#fdfcef"></path><path d="M33.25,69c-0.138,0 -0.25,-0.112 -0.25,-0.25c0,-1.223 0.995,-2.218 2.218,-2.218c0.034,0.009 0.737,-0.001 1.244,0.136c0.133,0.036 0.212,0.173 0.176,0.306c-0.036,0.134 -0.173,0.213 -0.306,0.176c-0.444,-0.12 -1.1,-0.12 -1.113,-0.118c-0.948,0 -1.719,0.771 -1.719,1.718c0,0.138 -0.112,0.25 -0.25,0.25z" fill="#472b29"></path><circle cx="26.5" cy="73.5" r="0.5" fill="#472b29"></circle><path d="M35,74h-3.5c-0.276,0 -0.5,-0.224 -0.5,-0.5c0,-0.276 0.224,-0.5 0.5,-0.5h3.5c1.654,0 3,-1.346 3,-3c0,-1.496 -1.125,-2.768 -2.618,-2.959c-0.134,-0.018 -0.255,-0.088 -0.336,-0.196c-0.081,-0.108 -0.115,-0.244 -0.094,-0.377c0.023,-0.154 0.048,-0.308 0.048,-0.468c0,-1.654 -1.346,-3 -3,-3c-0.85,0 -1.638,0.355 -2.219,1c-0.125,0.139 -0.321,0.198 -0.5,0.148c-0.182,-0.049 -0.321,-0.195 -0.36,-0.379c-0.341,-1.604 -1.78,-2.769 -3.421,-2.769c-1.93,0 -3.5,1.57 -3.5,3.5c0,0.143 0.021,0.28 0.041,0.418c0.029,0.203 -0.063,0.438 -0.242,0.54c-0.179,0.102 -0.396,0.118 -0.556,-0.01c-0.365,-0.293 -0.794,-0.448 -1.243,-0.448c-0.966,0 -1.792,0.691 -1.963,1.644c-0.048,0.267 -0.296,0.446 -0.569,0.405c-0.154,-0.024 -0.308,-0.049 -0.468,-0.049c-1.654,0 -3,1.346 -3,3c0,1.654 1.346,3 3,3h7.5c0.276,0 0.5,0.224 0.5,0.5c0,0.276 -0.224,0.5 -0.5,0.5h-7.5c-2.206,0 -4,-1.794 -4,-4c0,-2.206 1.794,-4 4,-4c0.059,0 0.116,0.002 0.174,0.006c0.414,-1.186 1.537,-2.006 2.826,-2.006c0.349,0 0.689,0.061 1.011,0.18c0.165,-2.333 2.115,-4.18 4.489,-4.18c1.831,0 3.466,1.127 4.153,2.774c0.68,-0.498 1.502,-0.774 2.347,-0.774c2.206,0 4,1.794 4,4c0,0.048 -0.001,0.095 -0.004,0.142c1.743,0.448 3.004,2.027 3.004,3.858c0,2.206 -1.794,4 -4,4z" fill="#472b29"></path><path d="M29.5,73c-0.159,0 -0.841,0 -1,0c-0.276,0 -0.5,0.224 -0.5,0.5c0,0.276 0.224,0.5 0.5,0.5c0.159,0 0.841,0 1,0c0.276,0 0.5,-0.224 0.5,-0.5c0,-0.276 -0.224,-0.5 -0.5,-0.5z" fill="#472b29"></path></g></g></g></svg>